<svg xmlns="http://www.w3.org/2000/svg" xmlns:xlink="http://www.w3.org/1999/xlink" width="850" zoomAndPan="magnify" viewBox="0 0 637.5 390.749984" height="521" preserveAspectRatio="xMidYMid meet" version="1.0"><defs><g/><clipPath id="id1"><path d="M 438 377 L 451 377 L 451 390.472656 L 438 390.472656 Z M 438 377 " clip-rule="nonzero"/></clipPath><clipPath id="id2"><path d="M 457 377 L 471 377 L 471 390.472656 L 457 390.472656 Z M 457 377 " clip-rule="nonzero"/></clipPath><clipPath id="id3"><path d="M 303 0.0273438 L 358 0.0273438 L 358 52 L 303 52 Z M 303 0.0273438 " clip-rule="nonzero"/></clipPath><clipPath id="id4"><path d="M 0 389 L 637 389 L 637 390.472656 L 0 390.472656 Z M 0 389 " clip-rule="nonzero"/></clipPath><clipPath id="id5"><path d="M 494 319 L 495 319 L 495 320 L 494 320 Z M 494 319 " clip-rule="nonzero"/></clipPath><clipPath id="id6"><path d="M 459.238281 322.640625 L 502.441406 300.050781 L 512.867188 319.988281 L 469.667969 342.578125 Z M 459.238281 322.640625 " clip-rule="nonzero"/></clipPath><clipPath id="id7"><path d="M 459.238281 322.640625 L 502.441406 300.050781 L 512.867188 319.988281 L 469.667969 342.578125 Z M 459.238281 322.640625 " clip-rule="nonzero"/></clipPath><clipPath id="id8"><path d="M 484 328 L 485 328 L 485 329 L 484 329 Z M 484 328 " clip-rule="nonzero"/></clipPath><clipPath id="id9"><path d="M 459.238281 322.640625 L 502.441406 300.050781 L 512.867188 319.988281 L 469.667969 342.578125 Z M 459.238281 322.640625 " clip-rule="nonzero"/></clipPath><clipPath id="id10"><path d="M 459.238281 322.640625 L 502.441406 300.050781 L 512.867188 319.988281 L 469.667969 342.578125 Z M 459.238281 322.640625 " clip-rule="nonzero"/></clipPath><clipPath id="id11"><path d="M 467 318 L 494 318 L 494 342 L 467 342 Z M 467 318 " clip-rule="nonzero"/></clipPath><clipPath id="id12"><path d="M 459.238281 322.640625 L 502.441406 300.050781 L 512.867188 319.988281 L 469.667969 342.578125 Z M 459.238281 322.640625 " clip-rule="nonzero"/></clipPath><clipPath id="id13"><path d="M 459.238281 322.640625 L 502.441406 300.050781 L 512.867188 319.988281 L 469.667969 342.578125 Z M 459.238281 322.640625 " clip-rule="nonzero"/></clipPath><clipPath id="id14"><path d="M 464.136719 332.003906 L 493.222656 316.796875 L 498.757812 327.386719 L 469.671875 342.59375 Z M 464.136719 332.003906 " clip-rule="nonzero"/></clipPath><clipPath id="id15"><path d="M 464.136719 332.003906 L 493.222656 316.796875 L 498.746094 327.363281 L 469.660156 342.570312 Z M 464.136719 332.003906 " clip-rule="nonzero"/></clipPath><clipPath id="id16"><path d="M 506 316 L 507 316 L 507 317 L 506 317 Z M 506 316 " clip-rule="nonzero"/></clipPath><clipPath id="id17"><path d="M 459.238281 322.640625 L 502.441406 300.050781 L 512.867188 319.988281 L 469.667969 342.578125 Z M 459.238281 322.640625 " clip-rule="nonzero"/></clipPath><clipPath id="id18"><path d="M 459.238281 322.640625 L 502.441406 300.050781 L 512.867188 319.988281 L 469.667969 342.578125 Z M 459.238281 322.640625 " clip-rule="nonzero"/></clipPath><clipPath id="id19"><path d="M 488 301 L 506 301 L 506 320 L 488 320 Z M 488 301 " clip-rule="nonzero"/></clipPath><clipPath id="id20"><path d="M 459.238281 322.640625 L 502.441406 300.050781 L 512.867188 319.988281 L 469.667969 342.578125 Z M 459.238281 322.640625 " clip-rule="nonzero"/></clipPath><clipPath id="id21"><path d="M 459.238281 322.640625 L 502.441406 300.050781 L 512.867188 319.988281 L 469.667969 342.578125 Z M 459.238281 322.640625 " clip-rule="nonzero"/></clipPath></defs><path fill="#a0616a" d="M 230.746094 205.105469 C 230.105469 205.28125 229.453125 205.402344 228.785156 205.460938 C 228.121094 205.519531 227.457031 205.519531 226.792969 205.457031 C 226.128906 205.398438 225.476562 205.277344 224.835938 205.097656 C 224.191406 204.914062 223.570312 204.679688 222.972656 204.386719 C 222.375 204.09375 221.804688 203.746094 221.269531 203.351562 C 220.734375 202.953125 220.238281 202.511719 219.78125 202.023438 C 219.328125 201.539062 218.917969 201.015625 218.558594 200.453125 C 218.199219 199.890625 217.890625 199.300781 217.636719 198.683594 C 217.386719 198.066406 217.191406 197.433594 217.050781 196.78125 C 216.914062 196.128906 216.835938 195.46875 216.820312 194.800781 C 216.804688 194.132812 216.847656 193.472656 216.949219 192.8125 C 217.054688 192.152344 217.214844 191.507812 217.4375 190.878906 C 217.65625 190.25 217.933594 189.648438 218.261719 189.066406 C 218.59375 188.488281 218.972656 187.945312 219.402344 187.433594 C 219.832031 186.921875 220.304688 186.457031 220.820312 186.03125 C 221.335938 185.609375 221.886719 185.234375 222.46875 184.910156 L 245.792969 158.449219 L 265.523438 162.710938 L 237.773438 189.890625 C 237.945312 190.25 238.09375 190.617188 238.222656 190.992188 C 238.351562 191.371094 238.460938 191.753906 238.550781 192.140625 C 238.636719 192.53125 238.703125 192.921875 238.75 193.316406 C 238.796875 193.714844 238.816406 194.109375 238.820312 194.507812 C 238.820312 194.90625 238.800781 195.304688 238.761719 195.699219 C 238.71875 196.097656 238.65625 196.488281 238.570312 196.878906 C 238.484375 197.265625 238.378906 197.652344 238.253906 198.027344 C 238.125 198.40625 237.980469 198.777344 237.8125 199.136719 C 237.644531 199.5 237.460938 199.851562 237.253906 200.191406 C 237.050781 200.53125 236.824219 200.863281 236.585938 201.179688 C 236.34375 201.496094 236.085938 201.796875 235.8125 202.085938 C 235.535156 202.375 235.246094 202.648438 234.941406 202.90625 C 234.636719 203.160156 234.320312 203.402344 233.992188 203.625 C 233.660156 203.847656 233.316406 204.050781 232.964844 204.234375 C 232.613281 204.417969 232.25 204.585938 231.878906 204.730469 C 231.507812 204.875 231.132812 205 230.746094 205.105469 Z M 230.746094 205.105469 " fill-opacity="1" fill-rule="nonzero"/><path fill="#3f3d56" d="M 307.488281 110.367188 L 249.351562 183.339844 L 231.628906 175.207031 L 299.964844 68.820312 Z M 307.488281 110.367188 " fill-opacity="1" fill-rule="nonzero"/><path fill="#e6e6e6" d="M 43.191406 362.578125 C 39.546875 355.507812 41.527344 346.589844 46.0625 340.058594 C 50.597656 333.527344 57.292969 328.871094 63.84375 324.363281 L 72.949219 318.089844 L 68.601562 339.925781 C 67.132812 347.308594 65.324219 355.277344 59.558594 360.117188 C 58.425781 361.046875 57.195312 361.816406 55.863281 362.425781 C 54.535156 363.035156 53.148438 363.46875 51.707031 363.722656 C 50.265625 363.976562 48.816406 364.042969 47.355469 363.925781 C 45.898438 363.804688 44.476562 363.503906 43.097656 363.015625 " fill-opacity="1" fill-rule="nonzero"/><path fill="#f2f2f2" d="M 43.878906 389.449219 C 43.925781 389.625 44.03125 389.757812 44.1875 389.84375 C 44.34375 389.933594 44.507812 389.957031 44.683594 389.910156 C 44.855469 389.855469 44.984375 389.75 45.074219 389.597656 C 45.160156 389.441406 45.183594 389.277344 45.140625 389.101562 C 44.632812 385.40625 44.128906 381.707031 43.890625 377.980469 C 43.496094 371.820312 43.863281 365.5 46.140625 359.699219 C 47.175781 357.09375 48.585938 354.710938 50.375 352.550781 C 52.164062 350.390625 54.246094 348.5625 56.613281 347.066406 C 57.324219 346.617188 56.667969 345.484375 55.953125 345.933594 C 53.191406 347.675781 50.8125 349.832031 48.808594 352.410156 C 45.066406 357.234375 43.226562 363.121094 42.652344 369.148438 C 42.003906 375.9375 42.953125 382.738281 43.875 389.453125 Z M 43.878906 389.449219 " fill-opacity="1" fill-rule="nonzero"/><path fill="#e6e6e6" d="M 136.574219 347.984375 C 107.878906 365.640625 117.445312 389.183594 117.445312 389.183594 Z M 136.574219 347.984375 " fill-opacity="1" fill-rule="nonzero"/><path fill="#e6e6e6" d="M 80.179688 372.117188 C 102.765625 371.972656 105.679688 388.753906 105.679688 388.753906 Z M 80.179688 372.117188 " fill-opacity="1" fill-rule="nonzero"/><g clip-path="url(#id1)"><path fill="#3f3d56" d="M 438.125 384.199219 C 438.125 384.617188 438.164062 385.03125 438.246094 385.441406 C 438.328125 385.851562 438.449219 386.253906 438.609375 386.640625 C 438.769531 387.027344 438.964844 387.394531 439.199219 387.742188 C 439.429688 388.089844 439.695312 388.410156 439.992188 388.707031 C 440.289062 389.003906 440.609375 389.269531 440.957031 389.5 C 441.304688 389.734375 441.671875 389.929688 442.058594 390.089844 C 442.445312 390.25 442.84375 390.371094 443.257812 390.453125 C 443.667969 390.535156 444.082031 390.574219 444.5 390.574219 C 444.917969 390.574219 445.332031 390.535156 445.746094 390.453125 C 446.15625 390.371094 446.554688 390.25 446.941406 390.089844 C 447.328125 389.929688 447.695312 389.734375 448.042969 389.5 C 448.390625 389.269531 448.714844 389.003906 449.007812 388.707031 C 449.304688 388.410156 449.570312 388.089844 449.800781 387.742188 C 450.035156 387.394531 450.230469 387.027344 450.390625 386.640625 C 450.550781 386.253906 450.671875 385.851562 450.753906 385.441406 C 450.835938 385.03125 450.875 384.617188 450.875 384.199219 C 450.875 383.78125 450.835938 383.367188 450.753906 382.953125 C 450.671875 382.542969 450.550781 382.144531 450.390625 381.757812 C 450.230469 381.371094 450.035156 381.003906 449.800781 380.65625 C 449.570312 380.308594 449.304688 379.984375 449.007812 379.691406 C 448.714844 379.394531 448.390625 379.128906 448.042969 378.898438 C 447.695312 378.664062 447.328125 378.46875 446.941406 378.308594 C 446.554688 378.148438 446.15625 378.027344 445.746094 377.945312 C 445.332031 377.863281 444.917969 377.824219 444.5 377.824219 C 444.082031 377.824219 443.667969 377.863281 443.257812 377.945312 C 442.84375 378.027344 442.445312 378.148438 442.058594 378.308594 C 441.671875 378.46875 441.304688 378.664062 440.957031 378.898438 C 440.609375 379.128906 440.289062 379.394531 439.992188 379.691406 C 439.695312 379.984375 439.429688 380.308594 439.199219 380.65625 C 438.964844 381.003906 438.769531 381.371094 438.609375 381.757812 C 438.449219 382.144531 438.328125 382.542969 438.246094 382.953125 C 438.164062 383.367188 438.125 383.78125 438.125 384.199219 Z M 438.125 384.199219 " fill-opacity="1" fill-rule="nonzero"/></g><path fill="#3f3d56" d="M 439.863281 255.800781 C 439.863281 255.800781 424.792969 210.007812 423.632812 206.816406 C 422.472656 203.628906 410.300781 208.847656 407.109375 209.714844 C 403.921875 210.585938 404.792969 213.773438 404.792969 213.773438 L 421.023438 260.726562 L 416.097656 263.046875 L 401.023438 215.800781 C 392.328125 206.816406 398.707031 206.238281 398.707031 206.238281 C 398.707031 206.238281 417.253906 199.863281 424.210938 199.28125 C 431.167969 198.703125 428.558594 207.109375 428.558594 207.109375 L 445.371094 251.742188 Z M 439.863281 255.800781 " fill-opacity="1" fill-rule="nonzero"/><path fill="#f50057" d="M 403.632812 266.8125 L 403.636719 266.8125 C 404.707031 265.277344 405.980469 263.941406 407.464844 262.804688 C 408.949219 261.667969 410.570312 260.78125 412.328125 260.148438 C 412.453125 260.101562 412.597656 260.050781 412.761719 259.992188 C 420.75 257.199219 476.382812 242.179688 476.382812 242.179688 C 476.382812 242.179688 487.394531 238.121094 492.324219 249.132812 C 497.25 260.148438 526.523438 351.445312 526.523438 351.445312 C 526.523438 351.445312 469.269531 382.066406 452.578125 385.398438 C 451.542969 385.648438 450.492188 385.730469 449.425781 385.648438 C 446.582031 385.253906 443.804688 384.589844 441.089844 383.65625 C 438.078125 382.675781 435.253906 381.308594 432.617188 379.5625 L 400.15625 282.464844 C 400.15625 282.464844 395.519531 271.742188 403.632812 266.8125 Z M 403.632812 266.8125 " fill-opacity="1" fill-rule="nonzero"/><path fill="#3f3d56" d="M 403.632812 266.8125 L 403.636719 266.8125 C 404.707031 265.277344 405.980469 263.941406 407.464844 262.804688 C 408.949219 261.667969 410.570312 260.78125 412.328125 260.148438 C 412.453125 260.101562 412.597656 260.050781 412.761719 259.992188 C 410.136719 264.59375 409.140625 271.742188 409.140625 271.742188 C 409.140625 271.742188 441.023438 366.519531 443.921875 375.503906 C 446.128906 382.351562 450.582031 384.679688 452.578125 385.398438 C 451.542969 385.648438 450.492188 385.730469 449.425781 385.648438 C 446.582031 385.253906 443.804688 384.589844 441.089844 383.65625 C 440.292969 382.746094 439.597656 381.765625 438.992188 380.71875 C 438.992188 380.71875 406.53125 283.625 403.632812 278.988281 C 400.734375 274.351562 403.632812 266.8125 403.632812 266.8125 Z M 403.632812 266.8125 " fill-opacity="1" fill-rule="nonzero"/><g clip-path="url(#id2)"><path fill="#3f3d56" d="M 457.6875 384.34375 C 457.6875 384.761719 457.726562 385.175781 457.808594 385.585938 C 457.890625 386 458.011719 386.398438 458.171875 386.785156 C 458.332031 387.171875 458.53125 387.539062 458.761719 387.886719 C 458.996094 388.234375 459.257812 388.554688 459.554688 388.851562 C 459.851562 389.148438 460.171875 389.414062 460.519531 389.644531 C 460.871094 389.878906 461.238281 390.074219 461.625 390.234375 C 462.011719 390.394531 462.410156 390.515625 462.820312 390.597656 C 463.230469 390.679688 463.644531 390.71875 464.0625 390.71875 C 464.484375 390.71875 464.898438 390.679688 465.308594 390.597656 C 465.71875 390.515625 466.117188 390.394531 466.503906 390.234375 C 466.890625 390.074219 467.257812 389.878906 467.605469 389.644531 C 467.953125 389.414062 468.277344 389.148438 468.574219 388.851562 C 468.867188 388.554688 469.132812 388.234375 469.367188 387.886719 C 469.597656 387.539062 469.792969 387.171875 469.957031 386.785156 C 470.117188 386.398438 470.234375 386 470.316406 385.585938 C 470.398438 385.175781 470.441406 384.761719 470.441406 384.34375 C 470.441406 383.925781 470.398438 383.511719 470.316406 383.097656 C 470.234375 382.6875 470.117188 382.289062 469.957031 381.902344 C 469.792969 381.515625 469.597656 381.148438 469.367188 380.800781 C 469.132812 380.453125 468.867188 380.128906 468.574219 379.835938 C 468.277344 379.539062 467.953125 379.273438 467.605469 379.042969 C 467.257812 378.808594 466.890625 378.613281 466.503906 378.453125 C 466.117188 378.292969 465.71875 378.171875 465.308594 378.089844 C 464.898438 378.007812 464.484375 377.96875 464.0625 377.96875 C 463.644531 377.96875 463.230469 378.007812 462.820312 378.089844 C 462.410156 378.171875 462.011719 378.292969 461.625 378.453125 C 461.238281 378.613281 460.871094 378.808594 460.519531 379.042969 C 460.171875 379.273438 459.851562 379.539062 459.554688 379.835938 C 459.257812 380.128906 458.996094 380.453125 458.761719 380.800781 C 458.53125 381.148438 458.332031 381.515625 458.171875 381.902344 C 458.011719 382.289062 457.890625 382.6875 457.808594 383.097656 C 457.726562 383.511719 457.6875 383.925781 457.6875 384.34375 Z M 457.6875 384.34375 " fill-opacity="1" fill-rule="nonzero"/></g><path fill="#3f3d56" d="M 519.570312 357.535156 C 519.570312 357.953125 519.609375 358.367188 519.691406 358.777344 C 519.773438 359.1875 519.894531 359.585938 520.054688 359.972656 C 520.214844 360.359375 520.410156 360.726562 520.644531 361.074219 C 520.875 361.425781 521.140625 361.746094 521.4375 362.042969 C 521.730469 362.339844 522.054688 362.601562 522.402344 362.835938 C 522.75 363.066406 523.117188 363.265625 523.503906 363.425781 C 523.890625 363.585938 524.289062 363.707031 524.699219 363.789062 C 525.113281 363.867188 525.527344 363.910156 525.945312 363.910156 C 526.363281 363.910156 526.777344 363.867188 527.1875 363.789062 C 527.601562 363.707031 528 363.585938 528.386719 363.425781 C 528.773438 363.265625 529.140625 363.066406 529.488281 362.835938 C 529.835938 362.601562 530.15625 362.339844 530.453125 362.042969 C 530.75 361.746094 531.015625 361.425781 531.246094 361.074219 C 531.480469 360.726562 531.675781 360.359375 531.835938 359.972656 C 531.996094 359.585938 532.117188 359.1875 532.199219 358.777344 C 532.28125 358.367188 532.320312 357.953125 532.320312 357.535156 C 532.320312 357.113281 532.28125 356.699219 532.199219 356.289062 C 532.117188 355.878906 531.996094 355.480469 531.835938 355.09375 C 531.675781 354.707031 531.480469 354.339844 531.246094 353.992188 C 531.015625 353.640625 530.75 353.320312 530.453125 353.023438 C 530.15625 352.726562 529.835938 352.464844 529.488281 352.230469 C 529.140625 352 528.773438 351.800781 528.386719 351.640625 C 528 351.480469 527.601562 351.359375 527.1875 351.28125 C 526.777344 351.199219 526.363281 351.15625 525.945312 351.15625 C 525.527344 351.15625 525.113281 351.199219 524.699219 351.28125 C 524.289062 351.359375 523.890625 351.480469 523.503906 351.640625 C 523.117188 351.800781 522.75 352 522.402344 352.230469 C 522.054688 352.464844 521.730469 352.726562 521.4375 353.023438 C 521.140625 353.320312 520.875 353.640625 520.644531 353.992188 C 520.410156 354.339844 520.214844 354.707031 520.054688 355.09375 C 519.894531 355.480469 519.773438 355.878906 519.691406 356.289062 C 519.609375 356.699219 519.570312 357.113281 519.570312 357.535156 Z M 519.570312 357.535156 " fill-opacity="1" fill-rule="nonzero"/><path fill="#a0616a" d="M 413.550781 210.699219 C 414.1875 210.902344 414.835938 211.042969 415.496094 211.125 C 416.160156 211.210938 416.824219 211.230469 417.488281 211.195312 C 418.15625 211.15625 418.8125 211.058594 419.460938 210.902344 C 420.109375 210.746094 420.734375 210.53125 421.34375 210.257812 C 421.953125 209.984375 422.535156 209.660156 423.082031 209.285156 C 423.632812 208.90625 424.144531 208.484375 424.617188 208.011719 C 425.089844 207.542969 425.515625 207.03125 425.898438 206.484375 C 426.277344 205.9375 426.605469 205.359375 426.878906 204.75 C 427.15625 204.144531 427.371094 203.515625 427.53125 202.867188 C 427.695312 202.222656 427.792969 201.5625 427.835938 200.898438 C 427.875 200.234375 427.855469 199.570312 427.777344 198.90625 C 427.695312 198.246094 427.558594 197.59375 427.359375 196.957031 C 427.160156 196.320312 426.90625 195.707031 426.597656 195.117188 C 426.289062 194.527344 425.925781 193.96875 425.515625 193.445312 C 425.105469 192.917969 424.648438 192.433594 424.148438 191.992188 C 423.648438 191.550781 423.113281 191.15625 422.542969 190.8125 L 400.175781 163.535156 L 380.308594 167.09375 L 407.070312 195.242188 C 406.886719 195.597656 406.722656 195.960938 406.582031 196.332031 C 406.4375 196.703125 406.316406 197.082031 406.214844 197.464844 C 406.113281 197.851562 406.03125 198.242188 405.972656 198.636719 C 405.914062 199.027344 405.875 199.425781 405.859375 199.824219 C 405.84375 200.21875 405.851562 200.617188 405.878906 201.015625 C 405.90625 201.414062 405.953125 201.808594 406.027344 202.199219 C 406.097656 202.589844 406.1875 202.976562 406.300781 203.359375 C 406.414062 203.742188 406.546875 204.117188 406.703125 204.484375 C 406.855469 204.851562 407.03125 205.210938 407.222656 205.558594 C 407.414062 205.90625 407.628906 206.242188 407.855469 206.566406 C 408.085938 206.894531 408.335938 207.203125 408.597656 207.503906 C 408.863281 207.800781 409.140625 208.085938 409.4375 208.351562 C 409.730469 208.621094 410.039062 208.871094 410.363281 209.105469 C 410.683594 209.339844 411.019531 209.554688 411.363281 209.75 C 411.710938 209.949219 412.066406 210.125 412.429688 210.285156 C 412.796875 210.445312 413.171875 210.582031 413.550781 210.699219 Z M 413.550781 210.699219 " fill-opacity="1" fill-rule="nonzero"/><path fill="#a0616a" d="M 261.101562 330.722656 L 247.246094 330.503906 L 248.910156 377.726562 L 261.097656 377.726562 Z M 261.101562 330.722656 " fill-opacity="1" fill-rule="nonzero"/><path fill="#2f2e41" d="M 264.207031 373.75 L 240.207031 373.746094 C 239.199219 373.746094 238.207031 373.847656 237.222656 374.042969 C 236.234375 374.238281 235.28125 374.527344 234.351562 374.914062 C 233.425781 375.296875 232.542969 375.769531 231.707031 376.324219 C 230.871094 376.882812 230.101562 377.519531 229.390625 378.226562 C 228.679688 378.9375 228.046875 379.710938 227.488281 380.546875 C 226.929688 381.382812 226.457031 382.261719 226.074219 383.191406 C 225.691406 384.117188 225.398438 385.074219 225.203125 386.058594 C 225.007812 387.042969 224.910156 388.039062 224.910156 389.042969 L 224.910156 389.539062 L 264.207031 389.542969 Z M 264.207031 373.75 " fill-opacity="1" fill-rule="nonzero"/><path fill="#a0616a" d="M 352.839844 318.195312 L 337.703125 327.914062 L 367.976562 364.335938 L 378.234375 357.753906 Z M 352.839844 318.195312 " fill-opacity="1" fill-rule="nonzero"/><path fill="#2f2e41" d="M 378.699219 352.722656 L 358.503906 365.691406 C 357.65625 366.234375 356.875 366.855469 356.152344 367.550781 C 355.425781 368.246094 354.78125 369.007812 354.207031 369.832031 C 353.632812 370.65625 353.144531 371.53125 352.746094 372.453125 C 352.34375 373.371094 352.035156 374.324219 351.824219 375.304688 C 351.609375 376.285156 351.492188 377.277344 351.472656 378.28125 C 351.457031 379.285156 351.535156 380.28125 351.714844 381.269531 C 351.890625 382.257812 352.164062 383.222656 352.53125 384.15625 C 352.898438 385.089844 353.351562 385.980469 353.894531 386.824219 L 354.164062 387.242188 L 387.230469 366.011719 Z M 378.699219 352.722656 " fill-opacity="1" fill-rule="nonzero"/><path fill="#3f3d56" d="M 358.230469 173.992188 C 358.230469 173.992188 324.601562 62.296875 313.792969 60.789062 C 302.984375 59.277344 285.570312 89.445312 285.570312 89.445312 C 262.996094 118.253906 239.714844 211.5625 239.714844 211.5625 C 239.714844 211.5625 278.523438 213.992188 306.894531 229.085938 C 335.265625 244.179688 368.746094 228.320312 368.746094 228.320312 Z M 358.230469 173.992188 " fill-opacity="1" fill-rule="nonzero"/><path fill="#000000" d="M 358.230469 173.992188 C 358.230469 173.992188 324.601562 62.296875 313.792969 60.789062 C 302.984375 59.277344 289.996094 89.753906 289.996094 89.753906 C 278.746094 136.253906 239.714844 211.5625 239.714844 211.5625 C 239.714844 211.5625 278.523438 213.992188 306.894531 229.085938 C 335.265625 244.179688 368.746094 228.320312 368.746094 228.320312 Z M 358.230469 173.992188 " fill-opacity="0.098" fill-rule="nonzero"/><path fill="#2f2e41" d="M 330.640625 140.574219 L 330.640625 196.699219 L 337.246094 278.003906 L 370.246094 339.503906 L 354.496094 350.753906 L 309.496094 292.253906 L 291.695312 234.167969 L 263.746094 362.753906 L 242.746094 361.253906 L 257.328125 182.96875 L 285.003906 132.789062 Z M 330.640625 140.574219 " fill-opacity="1" fill-rule="nonzero"/><path fill="#cccccc" d="M 296.734375 86.285156 C 286.234375 96.785156 295.984375 108.035156 295.984375 108.035156 L 283.984375 135.035156 L 331.234375 147.785156 L 347.746094 74.003906 L 336.496094 62.003906 C 313.996094 61.253906 313.984375 60.785156 313.984375 60.785156 C 310.039062 64.644531 296.734375 86.285156 296.734375 86.285156 Z M 296.734375 86.285156 " fill-opacity="1" fill-rule="nonzero"/><path fill="#3f3d56" d="M 349.910156 66.550781 C 350.878906 67.265625 351.773438 68.058594 352.601562 68.929688 C 353.429688 69.804688 354.171875 70.742188 354.832031 71.75 C 355.488281 72.753906 356.054688 73.8125 356.523438 74.917969 C 356.992188 76.023438 357.359375 77.164062 357.625 78.335938 C 357.890625 79.511719 358.050781 80.695312 358.105469 81.898438 C 358.15625 83.101562 358.105469 84.296875 357.941406 85.488281 C 357.78125 86.679688 357.515625 87.847656 357.148438 88.992188 C 356.777344 90.136719 356.308594 91.238281 355.742188 92.296875 C 350.328125 102.632812 344.503906 118.636719 347.507812 136.210938 C 352.941406 168.011719 370.359375 192.175781 380.058594 199.933594 C 383.4375 202.636719 383.554688 206.570312 383.058594 209.394531 C 381.675781 217.285156 374.023438 226.238281 368.730469 228.03125 C 368.375 228.152344 368.003906 228.210938 367.628906 228.207031 C 359.03125 228.207031 337.886719 200.832031 313.585938 147.347656 C 298.453125 114.039062 309.4375 87.332031 321.316406 70.792969 C 321.703125 70.253906 322.117188 69.734375 322.558594 69.238281 C 323 68.738281 323.460938 68.261719 323.949219 67.808594 C 324.4375 67.355469 324.945312 66.929688 325.476562 66.527344 C 326.003906 66.125 326.554688 65.75 327.121094 65.402344 C 327.6875 65.054688 328.269531 64.734375 328.867188 64.441406 C 329.464844 64.152344 330.078125 63.890625 330.703125 63.664062 C 331.324219 63.433594 331.960938 63.234375 332.605469 63.066406 C 333.246094 62.898438 333.898438 62.765625 334.554688 62.660156 C 335.210938 62.558594 335.871094 62.488281 336.539062 62.449219 C 337.203125 62.414062 337.867188 62.410156 338.53125 62.4375 C 339.195312 62.464844 339.855469 62.527344 340.515625 62.621094 C 341.171875 62.714844 341.824219 62.839844 342.472656 62.996094 C 343.117188 63.15625 343.753906 63.347656 344.382812 63.566406 C 345.007812 63.789062 345.625 64.039062 346.226562 64.324219 C 346.828125 64.605469 347.414062 64.917969 347.988281 65.257812 C 348.558594 65.597656 349.113281 65.964844 349.648438 66.359375 Z M 349.910156 66.550781 " fill-opacity="1" fill-rule="nonzero"/><path fill="#3f3d56" d="M 327.496094 98.753906 L 395.734375 188.289062 L 413.734375 180.789062 L 349.234375 72.039062 Z M 327.496094 98.753906 " fill-opacity="1" fill-rule="nonzero"/><g clip-path="url(#id3)"><path fill="#2f2e41" d="M 307.253906 51.066406 L 354.1875 51.066406 C 354.671875 51.066406 355.136719 50.972656 355.582031 50.789062 C 356.027344 50.601562 356.421875 50.339844 356.761719 50 C 357.101562 49.65625 357.367188 49.261719 357.550781 48.816406 C 357.738281 48.371094 357.828125 47.90625 357.828125 47.425781 L 357.828125 27.195312 C 357.832031 26.304688 357.789062 25.417969 357.703125 24.535156 C 357.617188 23.652344 357.484375 22.773438 357.3125 21.902344 C 357.140625 21.03125 356.925781 20.167969 356.667969 19.320312 C 356.410156 18.46875 356.113281 17.632812 355.773438 16.8125 C 355.433594 15.992188 355.054688 15.1875 354.636719 14.40625 C 354.21875 13.621094 353.761719 12.859375 353.269531 12.121094 C 352.777344 11.382812 352.25 10.667969 351.6875 9.980469 C 351.121094 9.296875 350.527344 8.636719 349.898438 8.007812 C 349.269531 7.378906 348.613281 6.785156 347.925781 6.21875 C 347.242188 5.65625 346.527344 5.128906 345.789062 4.632812 C 345.050781 4.140625 344.289062 3.683594 343.507812 3.265625 C 342.722656 2.84375 341.921875 2.464844 341.101562 2.125 C 340.28125 1.785156 339.445312 1.484375 338.59375 1.226562 C 337.746094 0.96875 336.882812 0.753906 336.011719 0.582031 C 335.140625 0.40625 334.265625 0.277344 333.378906 0.191406 C 332.496094 0.101562 331.609375 0.0585938 330.722656 0.0585938 C 329.832031 0.0585938 328.945312 0.101562 328.0625 0.191406 C 327.179688 0.277344 326.300781 0.40625 325.429688 0.582031 C 324.558594 0.753906 323.695312 0.96875 322.847656 1.226562 C 321.996094 1.484375 321.160156 1.785156 320.339844 2.125 C 319.519531 2.464844 318.71875 2.84375 317.933594 3.265625 C 317.152344 3.683594 316.390625 4.140625 315.652344 4.632812 C 314.914062 5.128906 314.199219 5.65625 313.515625 6.21875 C 312.828125 6.785156 312.171875 7.378906 311.542969 8.007812 C 310.914062 8.636719 310.320312 9.296875 309.757812 9.980469 C 309.191406 10.667969 308.664062 11.382812 308.171875 12.121094 C 307.679688 12.859375 307.222656 13.621094 306.804688 14.40625 C 306.386719 15.1875 306.007812 15.992188 305.667969 16.8125 C 305.328125 17.632812 305.03125 18.46875 304.773438 19.320312 C 304.515625 20.167969 304.300781 21.03125 304.128906 21.902344 C 303.957031 22.773438 303.828125 23.652344 303.742188 24.535156 C 303.652344 25.417969 303.613281 26.304688 303.613281 27.195312 L 303.613281 47.425781 C 303.613281 47.90625 303.707031 48.371094 303.890625 48.816406 C 304.074219 49.261719 304.339844 49.65625 304.679688 50 C 305.023438 50.339844 305.414062 50.601562 305.859375 50.789062 C 306.308594 50.972656 306.769531 51.066406 307.253906 51.066406 Z M 307.253906 51.066406 " fill-opacity="1" fill-rule="nonzero"/></g><path fill="#a0616a" d="M 315.617188 13.28125 C 315.046875 13.59375 314.492188 13.933594 313.953125 14.300781 C 313.417969 14.667969 312.898438 15.058594 312.398438 15.476562 C 311.898438 15.894531 311.421875 16.335938 310.964844 16.800781 C 310.511719 17.265625 310.078125 17.75 309.671875 18.257812 C 309.261719 18.765625 308.878906 19.289062 308.523438 19.835938 C 308.167969 20.378906 307.835938 20.941406 307.535156 21.515625 C 307.234375 22.09375 306.960938 22.683594 306.71875 23.289062 C 306.476562 23.890625 306.261719 24.503906 306.078125 25.128906 C 305.894531 25.753906 305.742188 26.386719 305.621094 27.027344 C 305.5 27.667969 305.414062 28.308594 305.355469 28.957031 C 305.296875 29.605469 305.269531 30.257812 305.277344 30.90625 C 305.285156 31.558594 305.320312 32.207031 305.390625 32.855469 C 305.460938 33.5 305.5625 34.144531 305.695312 34.78125 C 305.828125 35.417969 305.992188 36.046875 306.1875 36.667969 C 306.382812 37.289062 306.605469 37.898438 306.863281 38.5 C 307.117188 39.097656 307.398438 39.683594 307.710938 40.253906 C 308.023438 40.824219 308.363281 41.378906 308.730469 41.917969 C 309.097656 42.457031 309.488281 42.972656 309.90625 43.472656 C 310.324219 43.972656 310.765625 44.449219 311.230469 44.90625 C 311.695312 45.363281 312.179688 45.792969 312.6875 46.203125 C 313.195312 46.609375 313.71875 46.992188 314.265625 47.347656 C 314.808594 47.707031 315.371094 48.035156 315.949219 48.335938 C 316.523438 48.636719 317.113281 48.910156 317.71875 49.152344 C 318.320312 49.398438 318.9375 49.609375 319.5625 49.792969 C 320.1875 49.976562 320.816406 50.128906 321.457031 50.25 C 322.097656 50.371094 322.742188 50.460938 323.390625 50.515625 C 324.039062 50.574219 324.6875 50.601562 325.339844 50.59375 C 325.988281 50.589844 326.636719 50.550781 327.285156 50.480469 C 327.933594 50.410156 328.574219 50.308594 329.210938 50.175781 C 329.847656 50.042969 330.476562 49.878906 331.097656 49.683594 C 331.71875 49.488281 332.332031 49.265625 332.929688 49.011719 C 333.527344 48.753906 334.113281 48.472656 334.683594 48.160156 C 335.253906 47.847656 335.808594 47.507812 336.347656 47.140625 C 336.886719 46.773438 337.40625 46.382812 337.902344 45.964844 C 338.402344 45.546875 338.878906 45.105469 339.335938 44.640625 C 339.792969 44.175781 340.226562 43.691406 340.632812 43.183594 C 341.042969 42.675781 341.421875 42.152344 341.78125 41.605469 C 342.136719 41.0625 342.464844 40.5 342.765625 39.925781 C 343.070312 39.347656 343.339844 38.757812 343.585938 38.152344 C 343.828125 37.550781 344.039062 36.9375 344.222656 36.3125 C 344.40625 35.6875 344.558594 35.054688 344.679688 34.414062 C 344.800781 33.773438 344.890625 33.132812 344.949219 32.484375 C 345.007812 31.835938 345.03125 31.183594 345.027344 30.535156 C 345.019531 29.882812 344.980469 29.234375 344.910156 28.585938 C 344.839844 27.941406 344.742188 27.296875 344.605469 26.660156 C 344.472656 26.023438 344.308594 25.394531 344.117188 24.773438 C 343.921875 24.152344 343.695312 23.542969 343.441406 22.941406 C 343.1875 22.34375 342.902344 21.757812 342.589844 21.1875 C 342.277344 20.617188 341.9375 20.0625 341.574219 19.523438 C 341.207031 18.984375 340.8125 18.46875 340.394531 17.96875 C 339.976562 17.46875 339.539062 16.992188 339.074219 16.535156 C 338.609375 16.078125 338.121094 15.648438 337.617188 15.238281 C 337.109375 14.832031 336.582031 14.449219 336.039062 14.09375 C 335.492188 13.734375 334.933594 13.40625 334.355469 13.105469 C 333.777344 12.804688 333.1875 12.53125 332.585938 12.289062 C 331.980469 12.042969 331.367188 11.832031 330.742188 11.648438 C 330.117188 11.464844 329.484375 11.3125 328.847656 11.191406 C 328.207031 11.070312 327.5625 10.980469 326.914062 10.925781 C 326.265625 10.867188 325.617188 10.839844 324.964844 10.847656 C 324.3125 10.851562 323.664062 10.890625 323.019531 10.960938 C 322.371094 11.03125 321.726562 11.132812 321.089844 11.265625 C 320.453125 11.398438 319.824219 11.5625 319.203125 11.757812 C 318.582031 11.953125 317.972656 12.175781 317.375 12.429688 C 316.773438 12.683594 316.191406 12.96875 315.617188 13.28125 Z M 315.617188 13.28125 " fill-opacity="1" fill-rule="nonzero"/><path fill="#2f2e41" d="M 297.199219 29.21875 L 325.898438 29.21875 L 326.191406 25.097656 L 327.664062 29.21875 L 332.082031 29.21875 L 332.667969 21.050781 L 335.582031 29.21875 L 344.132812 29.21875 L 344.132812 28.8125 C 344.132812 28.109375 344.097656 27.410156 344.027344 26.710938 C 343.957031 26.011719 343.855469 25.320312 343.71875 24.632812 C 343.578125 23.941406 343.410156 23.261719 343.203125 22.589844 C 343 21.917969 342.765625 21.257812 342.496094 20.609375 C 342.226562 19.960938 341.925781 19.328125 341.59375 18.710938 C 341.261719 18.089844 340.902344 17.488281 340.511719 16.90625 C 340.121094 16.320312 339.703125 15.757812 339.257812 15.214844 C 338.8125 14.671875 338.34375 14.152344 337.847656 13.65625 C 337.347656 13.160156 336.828125 12.6875 336.285156 12.242188 C 335.746094 11.796875 335.179688 11.378906 334.597656 10.992188 C 334.015625 10.601562 333.414062 10.238281 332.792969 9.90625 C 332.175781 9.578125 331.539062 9.277344 330.890625 9.007812 C 330.242188 8.738281 329.582031 8.503906 328.910156 8.296875 C 328.238281 8.09375 327.558594 7.921875 326.871094 7.785156 C 326.183594 7.648438 325.488281 7.542969 324.789062 7.472656 C 324.09375 7.40625 323.390625 7.371094 322.691406 7.367188 L 318.644531 7.367188 C 317.941406 7.371094 317.242188 7.40625 316.542969 7.472656 C 315.84375 7.542969 315.148438 7.648438 314.460938 7.785156 C 313.773438 7.921875 313.09375 8.09375 312.421875 8.296875 C 311.75 8.503906 311.089844 8.738281 310.441406 9.007812 C 309.792969 9.277344 309.160156 9.578125 308.539062 9.90625 C 307.921875 10.238281 307.320312 10.601562 306.734375 10.992188 C 306.152344 11.378906 305.589844 11.796875 305.046875 12.242188 C 304.503906 12.6875 303.984375 13.160156 303.488281 13.65625 C 302.992188 14.152344 302.519531 14.671875 302.074219 15.214844 C 301.628906 15.757812 301.210938 16.320312 300.820312 16.90625 C 300.429688 17.488281 300.070312 18.089844 299.738281 18.710938 C 299.40625 19.328125 299.105469 19.960938 298.839844 20.609375 C 298.570312 21.257812 298.332031 21.917969 298.128906 22.589844 C 297.925781 23.261719 297.753906 23.941406 297.617188 24.632812 C 297.476562 25.320312 297.375 26.011719 297.304688 26.710938 C 297.234375 27.410156 297.199219 28.109375 297.199219 28.8125 Z M 297.199219 29.21875 " fill-opacity="1" fill-rule="nonzero"/><path fill="#2f2e41" d="M 326.132812 54.84375 C 326.351562 54.84375 326.566406 54.824219 326.777344 54.785156 L 347.792969 51.078125 L 347.792969 16.347656 L 324.660156 16.347656 L 325.230469 17.015625 C 333.199219 26.308594 327.195312 41.375 322.910156 49.53125 C 322.585938 50.140625 322.453125 50.789062 322.503906 51.476562 C 322.554688 52.164062 322.785156 52.785156 323.195312 53.339844 C 323.535156 53.8125 323.964844 54.179688 324.484375 54.445312 C 325 54.710938 325.550781 54.84375 326.132812 54.84375 Z M 326.132812 54.84375 " fill-opacity="1" fill-rule="nonzero"/><g clip-path="url(#id4)"><path fill="#cbcbcb" d="M 637.5 389.96875 C 637.5 389.761719 637.425781 389.585938 637.28125 389.4375 C 637.132812 389.292969 636.957031 389.21875 636.75 389.21875 L 0.75 389.21875 C 0.542969 389.21875 0.367188 389.292969 0.21875 389.4375 C 0.0742188 389.585938 0 389.761719 0 389.96875 C 0 390.175781 0.0742188 390.355469 0.21875 390.5 C 0.367188 390.644531 0.542969 390.71875 0.75 390.71875 L 636.75 390.71875 C 636.957031 390.71875 637.132812 390.644531 637.28125 390.5 C 637.425781 390.355469 637.5 390.175781 637.5 389.96875 Z M 637.5 389.96875 " fill-opacity="1" fill-rule="nonzero"/></g><g clip-path="url(#id5)"><g clip-path="url(#id6)"><g clip-path="url(#id7)"><path fill="#ffffff" d="M 494.832031 319.285156 L 494.828125 319.28125 Z M 494.832031 319.285156 " fill-opacity="1" fill-rule="nonzero"/></g></g></g><g clip-path="url(#id8)"><g clip-path="url(#id9)"><g clip-path="url(#id10)"><path fill="#ffffff" d="M 484.617188 328.027344 C 484.613281 328.027344 484.609375 328.023438 484.605469 328.019531 C 484.609375 328.023438 484.613281 328.027344 484.617188 328.027344 " fill-opacity="1" fill-rule="nonzero"/></g></g></g><g clip-path="url(#id11)"><g clip-path="url(#id12)"><g clip-path="url(#id13)"><g clip-path="url(#id14)"><g clip-path="url(#id15)"><path fill="#ffffff" d="M 468.871094 340.609375 C 469.105469 340.804688 469.378906 340.960938 469.667969 341.066406 C 469.957031 341.167969 470.253906 341.21875 470.542969 341.238281 C 471.125 341.269531 471.675781 341.175781 472.191406 341.03125 C 472.707031 340.886719 473.191406 340.6875 473.660156 340.46875 C 474.125 340.25 474.574219 340 475.007812 339.738281 C 475.875 339.214844 476.691406 338.625 477.476562 338.003906 C 477.863281 337.691406 478.246094 337.371094 478.621094 337.042969 C 478.996094 336.714844 479.363281 336.378906 479.71875 336.039062 C 480.28125 335.503906 480.828125 334.957031 481.355469 334.394531 C 481.699219 334.03125 482.039062 333.664062 482.375 333.292969 C 482.84375 332.769531 483.304688 332.238281 483.761719 331.707031 C 484.523438 330.808594 485.269531 329.902344 486.003906 328.988281 C 486.304688 328.621094 486.597656 328.25 486.894531 327.875 C 487.09375 327.628906 487.289062 327.382812 487.484375 327.132812 C 488.699219 325.59375 489.898438 324.042969 491.078125 322.476562 C 491.867188 321.429688 492.65625 320.371094 493.429688 319.308594 C 493.570312 319.117188 493.800781 318.796875 493.953125 318.582031 C 494.054688 318.441406 493.984375 318.238281 493.8125 318.203125 C 493.800781 318.199219 493.792969 318.199219 493.78125 318.199219 C 493.539062 318.183594 493.304688 318.300781 493.175781 318.507812 C 493.097656 318.625 493.015625 318.753906 492.957031 318.847656 C 492.226562 319.980469 491.476562 321.101562 490.695312 322.203125 C 489.566406 323.792969 488.378906 325.351562 487.128906 326.851562 C 487.042969 326.957031 486.953125 327.0625 486.867188 327.164062 C 486.820312 327.21875 486.777344 327.273438 486.730469 327.324219 C 486.710938 327.347656 486.691406 327.371094 486.671875 327.394531 C 486.640625 327.433594 486.609375 327.46875 486.578125 327.503906 C 486.546875 327.539062 486.519531 327.574219 486.488281 327.609375 C 486.464844 327.636719 486.445312 327.664062 486.421875 327.6875 C 486.367188 327.75 486.3125 327.816406 486.257812 327.878906 C 486.257812 327.878906 486.257812 327.878906 486.253906 327.878906 C 486.175781 327.96875 486.097656 328.058594 486.019531 328.148438 C 485.941406 328.238281 485.855469 328.320312 485.777344 328.410156 C 485.699219 328.5 485.617188 328.589844 485.53125 328.671875 L 485.53125 328.675781 C 484.789062 329.550781 483.984375 330.363281 483.175781 331.175781 C 482.609375 331.746094 482.023438 332.300781 481.449219 332.863281 C 481.085938 333.214844 480.726562 333.566406 480.339844 333.890625 L 480.335938 333.894531 C 479.882812 334.339844 479.398438 334.753906 478.917969 335.167969 C 478.738281 335.328125 478.554688 335.488281 478.371094 335.644531 C 478.1875 335.800781 478.003906 335.957031 477.816406 336.109375 C 477.441406 336.417969 477.070312 336.722656 476.6875 337.015625 C 475.929688 337.605469 475.152344 338.171875 474.351562 338.671875 C 473.949219 338.921875 473.539062 339.152344 473.125 339.363281 C 472.707031 339.570312 472.285156 339.75 471.859375 339.878906 C 471.433594 340.011719 471.003906 340.09375 470.609375 340.085938 C 470.210938 340.074219 469.859375 339.96875 469.574219 339.753906 C 469.289062 339.539062 469.074219 339.203125 468.925781 338.8125 C 468.777344 338.417969 468.695312 337.976562 468.652344 337.523438 C 468.609375 337.070312 468.609375 336.601562 468.632812 336.132812 C 468.652344 335.660156 468.699219 335.1875 468.761719 334.714844 C 468.886719 333.765625 469.074219 332.820312 469.292969 331.878906 C 469.511719 330.933594 469.765625 329.996094 470.027344 329.054688 L 469.894531 329.007812 C 469.496094 329.902344 469.132812 330.816406 468.8125 331.746094 C 468.496094 332.675781 468.21875 333.625 468.011719 334.59375 C 467.808594 335.566406 467.664062 336.558594 467.691406 337.589844 C 467.710938 338.105469 467.773438 338.628906 467.941406 339.15625 C 468.023438 339.417969 468.136719 339.679688 468.289062 339.929688 C 468.441406 340.175781 468.636719 340.410156 468.871094 340.609375 " fill-opacity="1" fill-rule="nonzero"/></g></g></g></g></g><g clip-path="url(#id16)"><g clip-path="url(#id17)"><g clip-path="url(#id18)"><path fill="#ffffff" d="M 506.757812 316.035156 C 506.761719 316.039062 506.761719 316.039062 506.761719 316.039062 L 506.769531 316.027344 C 506.765625 316.027344 506.761719 316.03125 506.757812 316.035156 " fill-opacity="1" fill-rule="nonzero"/></g></g></g><g clip-path="url(#id19)"><g clip-path="url(#id20)"><g clip-path="url(#id21)"><path fill="#ffffff" d="M 491.417969 316.902344 L 492.78125 316.992188 L 493.152344 317.019531 C 493.152344 317.019531 494.050781 317.078125 494.054688 317.078125 C 494.265625 317.09375 494.46875 317.140625 494.644531 317.257812 C 494.792969 317.359375 494.902344 317.511719 495.015625 317.648438 C 495.191406 317.867188 495.367188 318.082031 495.542969 318.300781 L 495.546875 318.300781 L 496.539062 319.523438 C 496.671875 319.6875 496.855469 319.679688 496.945312 319.503906 C 497.039062 319.332031 497.039062 319.03125 496.945312 318.839844 L 496.210938 317.355469 L 495.714844 316.355469 L 496.679688 314.679688 L 496.75 314.558594 L 499.5 309.785156 L 499.625 309.941406 L 499.628906 309.941406 L 499.644531 309.933594 L 500.433594 310.8125 L 500.441406 310.816406 L 505.019531 316.238281 C 505.117188 316.351562 505.230469 316.398438 505.3125 316.320312 L 505.316406 316.316406 C 505.347656 316.285156 505.378906 316.246094 505.40625 316.195312 L 505.820312 315.410156 C 505.917969 315.226562 505.917969 314.933594 505.816406 314.753906 L 504.863281 313.066406 C 504.90625 313.03125 504.917969 312.980469 504.945312 312.929688 L 505.125 312.585938 L 505.175781 312.492188 C 505.273438 312.308594 505.25 312.097656 505.066406 312.003906 L 504.933594 311.933594 C 504.875 311.90625 504.804688 311.890625 504.734375 311.890625 C 504.589844 311.890625 504.441406 311.957031 504.375 312.078125 L 504.332031 312.160156 L 503.515625 310.679688 C 503.554688 310.648438 503.617188 310.621094 503.644531 310.574219 L 503.738281 310.390625 L 503.867188 310.144531 C 503.964844 309.964844 503.890625 309.730469 503.707031 309.636719 L 503.574219 309.566406 C 503.457031 309.507812 503.292969 309.503906 503.167969 309.5625 C 503.097656 309.59375 503.042969 309.640625 503.007812 309.707031 L 502.972656 309.769531 L 502.042969 308.109375 L 502 308.03125 L 501.347656 306.867188 L 501.253906 306.703125 L 502.660156 304.324219 L 502.671875 304.308594 C 502.988281 303.753906 503.320312 302.527344 503.234375 301.800781 C 503.203125 301.550781 503.125 301.359375 502.980469 301.273438 C 502.84375 301.191406 502.660156 301.210938 502.453125 301.296875 C 501.800781 301.574219 500.925781 302.523438 500.601562 303.089844 C 500.59375 303.101562 500.148438 304.023438 499.496094 305.371094 C 499.476562 305.417969 499.457031 305.460938 499.433594 305.503906 C 499.398438 305.574219 499.367188 305.644531 499.332031 305.714844 L 499.207031 305.726562 L 499.121094 305.734375 L 497.964844 305.847656 L 495.761719 306.070312 L 495.796875 306.003906 C 495.890625 305.820312 495.832031 305.59375 495.648438 305.5 L 495.515625 305.429688 C 495.332031 305.335938 495.148438 305.4375 495.050781 305.621094 L 494.828125 306.046875 C 494.800781 306.097656 494.753906 306.132812 494.75 306.183594 L 492.996094 306.339844 L 493.039062 306.261719 C 493.136719 306.078125 493.085938 305.855469 492.902344 305.761719 L 492.769531 305.691406 C 492.585938 305.597656 492.332031 305.667969 492.238281 305.851562 L 492.003906 306.289062 C 491.980469 306.339844 491.96875 306.394531 491.964844 306.445312 L 490.011719 306.640625 C 489.804688 306.660156 489.539062 306.820312 489.445312 307.003906 L 489.03125 307.789062 C 488.933594 307.972656 489.039062 308.144531 489.242188 308.164062 L 496.09375 308.757812 L 497.476562 308.878906 L 497.796875 308.910156 C 497.75 309.007812 497.703125 309.109375 497.652344 309.207031 C 496.335938 311.941406 494.972656 314.769531 494.503906 315.746094 L 493.445312 315.914062 L 492.246094 316.101562 L 491.75 316.179688 C 491.539062 316.214844 491.292969 316.382812 491.199219 316.558594 C 491.105469 316.734375 491.203125 316.886719 491.417969 316.902344 " fill-opacity="1" fill-rule="nonzero"/></g></g></g><g fill="#ffffff" fill-opacity="1"><g transform="translate(441.146, 329.617857)"><g><path d="M 2.234375 -1.125 L 0.640625 -0.328125 L -2.359375 -6.296875 L 1.171875 -8.0625 L 1.828125 -6.765625 L -0.109375 -5.796875 L 0.453125 -4.65625 L 2.234375 -5.546875 L 2.890625 -4.265625 L 1.109375 -3.375 Z M 2.234375 -1.125 "/></g></g></g><g fill="#ffffff" fill-opacity="1"><g transform="translate(445.650677, 327.355042)"><g><path d="M 3.796875 -4.8125 C 4.179688 -4.0625 4.273438 -3.367188 4.078125 -2.734375 C 3.878906 -2.109375 3.421875 -1.613281 2.703125 -1.25 C 1.992188 -0.894531 1.320312 -0.828125 0.6875 -1.046875 C 0.0507812 -1.273438 -0.453125 -1.753906 -0.828125 -2.484375 C -1.203125 -3.242188 -1.285156 -3.9375 -1.078125 -4.5625 C -0.878906 -5.1875 -0.410156 -5.679688 0.328125 -6.046875 C 0.765625 -6.273438 1.203125 -6.378906 1.640625 -6.359375 C 2.085938 -6.347656 2.5 -6.207031 2.875 -5.9375 C 3.25 -5.675781 3.554688 -5.300781 3.796875 -4.8125 Z M 0.796875 -3.296875 C 0.992188 -2.910156 1.203125 -2.640625 1.421875 -2.484375 C 1.640625 -2.335938 1.875 -2.328125 2.125 -2.453125 C 2.375 -2.578125 2.492188 -2.769531 2.484375 -3.03125 C 2.472656 -3.289062 2.367188 -3.613281 2.171875 -4 C 1.972656 -4.40625 1.769531 -4.675781 1.5625 -4.8125 C 1.363281 -4.957031 1.140625 -4.96875 0.890625 -4.84375 C 0.648438 -4.726562 0.523438 -4.539062 0.515625 -4.28125 C 0.503906 -4.03125 0.597656 -3.703125 0.796875 -3.296875 Z M 0.796875 -3.296875 "/></g></g></g><g fill="#ffffff" fill-opacity="1"><g transform="translate(450.9755, 324.680247)"><g><path d="M 3.859375 -1.9375 L 3.359375 -2.40625 L 3.265625 -2.359375 C 3.234375 -2.078125 3.128906 -1.820312 2.953125 -1.59375 C 2.773438 -1.363281 2.523438 -1.164062 2.203125 -1 C 1.691406 -0.75 1.21875 -0.703125 0.78125 -0.859375 C 0.351562 -1.015625 0.00390625 -1.363281 -0.265625 -1.90625 L -1.78125 -4.90625 L -0.1875 -5.703125 L 1.09375 -3.171875 C 1.238281 -2.867188 1.394531 -2.660156 1.5625 -2.546875 C 1.726562 -2.441406 1.90625 -2.441406 2.09375 -2.546875 C 2.363281 -2.679688 2.503906 -2.882812 2.515625 -3.15625 C 2.523438 -3.425781 2.40625 -3.816406 2.15625 -4.328125 L 1.125 -6.359375 L 2.71875 -7.15625 L 5.046875 -2.53125 Z M 3.859375 -1.9375 "/></g></g></g><g fill="#ffffff" fill-opacity="1"><g transform="translate(456.573704, 321.868125)"><g><path d="M 0.984375 -6.390625 C 1.117188 -6.453125 1.253906 -6.503906 1.390625 -6.546875 L 1.484375 -6.578125 L 2.109375 -5.015625 C 1.953125 -4.972656 1.757812 -4.894531 1.53125 -4.78125 C 1.1875 -4.601562 0.972656 -4.394531 0.890625 -4.15625 C 0.816406 -3.914062 0.859375 -3.648438 1.015625 -3.359375 L 2.15625 -1.078125 L 0.546875 -0.28125 L -1.78125 -4.90625 L -0.578125 -5.5 L 0.03125 -4.875 L 0.109375 -4.90625 C 0.117188 -5.238281 0.207031 -5.535156 0.375 -5.796875 C 0.539062 -6.066406 0.742188 -6.265625 0.984375 -6.390625 Z M 0.984375 -6.390625 "/></g></g></g><g fill="#ffffff" fill-opacity="1"><g transform="translate(460.494895, 319.898411)"><g/></g></g><g fill="#ffffff" fill-opacity="1"><g transform="translate(462.665627, 318.807996)"><g><path d="M 4.140625 -5.984375 C 4.640625 -4.992188 4.75 -4.085938 4.46875 -3.265625 C 4.195312 -2.453125 3.566406 -1.796875 2.578125 -1.296875 L 0.640625 -0.328125 L -2.359375 -6.296875 L -0.296875 -7.328125 C 0.660156 -7.804688 1.519531 -7.929688 2.28125 -7.703125 C 3.050781 -7.484375 3.671875 -6.910156 4.140625 -5.984375 Z M 2.5 -5.09375 C 2.21875 -5.632812 1.90625 -5.976562 1.5625 -6.125 C 1.21875 -6.28125 0.820312 -6.25 0.375 -6.03125 L -0.078125 -5.796875 L 1.59375 -2.46875 L 1.9375 -2.640625 C 2.425781 -2.890625 2.710938 -3.210938 2.796875 -3.609375 C 2.890625 -4.003906 2.789062 -4.5 2.5 -5.09375 Z M 2.5 -5.09375 "/></g></g></g><g fill="#ffffff" fill-opacity="1"><g transform="translate(468.798354, 315.72737)"><g><path d="M 2.828125 -1.3125 C 2.066406 -0.9375 1.363281 -0.84375 0.71875 -1.03125 C 0.0820312 -1.21875 -0.421875 -1.691406 -0.796875 -2.453125 C -1.191406 -3.234375 -1.296875 -3.929688 -1.109375 -4.546875 C -0.921875 -5.160156 -0.457031 -5.65625 0.28125 -6.03125 C 0.976562 -6.382812 1.601562 -6.472656 2.15625 -6.296875 C 2.71875 -6.117188 3.171875 -5.691406 3.515625 -5.015625 L 3.859375 -4.3125 L 1.015625 -2.875 C 1.160156 -2.625 1.359375 -2.46875 1.609375 -2.40625 C 1.859375 -2.34375 2.132812 -2.390625 2.4375 -2.546875 C 2.71875 -2.679688 2.960938 -2.835938 3.171875 -3.015625 C 3.390625 -3.191406 3.601562 -3.410156 3.8125 -3.671875 L 4.390625 -2.515625 C 4.203125 -2.265625 3.988281 -2.046875 3.75 -1.859375 C 3.507812 -1.679688 3.203125 -1.5 2.828125 -1.3125 Z M 0.875 -4.96875 C 0.695312 -4.875 0.570312 -4.734375 0.5 -4.546875 C 0.425781 -4.367188 0.441406 -4.148438 0.546875 -3.890625 L 1.90625 -4.578125 C 1.789062 -4.796875 1.640625 -4.941406 1.453125 -5.015625 C 1.273438 -5.085938 1.082031 -5.070312 0.875 -4.96875 Z M 0.875 -4.96875 "/></g></g></g><g fill="#ffffff" fill-opacity="1"><g transform="translate(473.964044, 313.132512)"><g><path d="M 0.34375 -3.125 L -2.21875 -4.6875 L -0.40625 -5.59375 L 0.96875 -4.65625 L 1.015625 -6.3125 L 2.84375 -7.21875 L 2.53125 -4.21875 L 5.21875 -2.625 L 3.421875 -1.71875 L 1.9375 -2.734375 L 1.859375 -0.9375 L 0.046875 -0.015625 Z M 0.34375 -3.125 "/></g></g></g><g fill="#ffffff" fill-opacity="1"><g transform="translate(479.227661, 310.488462)"><g><path d="M 2.234375 -2.609375 C 2.441406 -2.710938 2.671875 -2.890625 2.921875 -3.140625 L 3.5 -1.984375 C 3.332031 -1.785156 3.160156 -1.613281 2.984375 -1.46875 C 2.816406 -1.332031 2.601562 -1.203125 2.34375 -1.078125 C 1.800781 -0.804688 1.34375 -0.742188 0.96875 -0.890625 C 0.601562 -1.035156 0.285156 -1.375 0.015625 -1.90625 L -0.9375 -3.828125 L -1.5 -3.546875 L -1.828125 -4.1875 L -1.375 -5.046875 L -1.453125 -6.234375 L -0.40625 -6.765625 L 0.0625 -5.828125 L 1.1875 -6.390625 L 1.796875 -5.203125 L 0.671875 -4.640625 L 1.5625 -2.84375 C 1.71875 -2.539062 1.941406 -2.460938 2.234375 -2.609375 Z M 2.234375 -2.609375 "/></g></g></g><g fill="#ffffff" fill-opacity="1"><g transform="translate(483.071326, 308.55769)"><g><path d="M 2.828125 -1.3125 C 2.066406 -0.9375 1.363281 -0.84375 0.71875 -1.03125 C 0.0820312 -1.21875 -0.421875 -1.691406 -0.796875 -2.453125 C -1.191406 -3.234375 -1.296875 -3.929688 -1.109375 -4.546875 C -0.921875 -5.160156 -0.457031 -5.65625 0.28125 -6.03125 C 0.976562 -6.382812 1.601562 -6.472656 2.15625 -6.296875 C 2.71875 -6.117188 3.171875 -5.691406 3.515625 -5.015625 L 3.859375 -4.3125 L 1.015625 -2.875 C 1.160156 -2.625 1.359375 -2.46875 1.609375 -2.40625 C 1.859375 -2.34375 2.132812 -2.390625 2.4375 -2.546875 C 2.71875 -2.679688 2.960938 -2.835938 3.171875 -3.015625 C 3.390625 -3.191406 3.601562 -3.410156 3.8125 -3.671875 L 4.390625 -2.515625 C 4.203125 -2.265625 3.988281 -2.046875 3.75 -1.859375 C 3.507812 -1.679688 3.203125 -1.5 2.828125 -1.3125 Z M 0.875 -4.96875 C 0.695312 -4.875 0.570312 -4.734375 0.5 -4.546875 C 0.425781 -4.367188 0.441406 -4.148438 0.546875 -3.890625 L 1.90625 -4.578125 C 1.789062 -4.796875 1.640625 -4.941406 1.453125 -5.015625 C 1.273438 -5.085938 1.082031 -5.070312 0.875 -4.96875 Z M 0.875 -4.96875 "/></g></g></g><g fill="#ffffff" fill-opacity="1"><g transform="translate(488.237016, 305.962832)"><g><path d="M 0.984375 -6.390625 C 1.117188 -6.453125 1.253906 -6.503906 1.390625 -6.546875 L 1.484375 -6.578125 L 2.109375 -5.015625 C 1.953125 -4.972656 1.757812 -4.894531 1.53125 -4.78125 C 1.1875 -4.601562 0.972656 -4.394531 0.890625 -4.15625 C 0.816406 -3.914062 0.859375 -3.648438 1.015625 -3.359375 L 2.15625 -1.078125 L 0.546875 -0.28125 L -1.78125 -4.90625 L -0.578125 -5.5 L 0.03125 -4.875 L 0.109375 -4.90625 C 0.117188 -5.238281 0.207031 -5.535156 0.375 -5.796875 C 0.539062 -6.066406 0.742188 -6.265625 0.984375 -6.390625 Z M 0.984375 -6.390625 "/></g></g></g><g fill="#ffffff" fill-opacity="1"><g transform="translate(492.158207, 303.993117)"><g><path d="M 2.15625 -1.078125 L 0.5625 -0.28125 L -1.765625 -4.90625 L -0.171875 -5.703125 Z M -2.390625 -6.046875 C -2.515625 -6.285156 -2.535156 -6.5 -2.453125 -6.6875 C -2.378906 -6.875 -2.191406 -7.039062 -1.890625 -7.1875 C -1.597656 -7.332031 -1.351562 -7.375 -1.15625 -7.3125 C -0.957031 -7.257812 -0.800781 -7.117188 -0.6875 -6.890625 C -0.445312 -6.421875 -0.609375 -6.046875 -1.171875 -5.765625 C -1.742188 -5.484375 -2.148438 -5.578125 -2.390625 -6.046875 Z M -2.390625 -6.046875 "/></g></g></g><g fill="#ffffff" fill-opacity="1"><g transform="translate(494.875703, 302.628049)"><g><path d="M 2.234375 -2.609375 C 2.441406 -2.710938 2.671875 -2.890625 2.921875 -3.140625 L 3.5 -1.984375 C 3.332031 -1.785156 3.160156 -1.613281 2.984375 -1.46875 C 2.816406 -1.332031 2.601562 -1.203125 2.34375 -1.078125 C 1.800781 -0.804688 1.34375 -0.742188 0.96875 -0.890625 C 0.601562 -1.035156 0.285156 -1.375 0.015625 -1.90625 L -0.9375 -3.828125 L -1.5 -3.546875 L -1.828125 -4.1875 L -1.375 -5.046875 L -1.453125 -6.234375 L -0.40625 -6.765625 L 0.0625 -5.828125 L 1.1875 -6.390625 L 1.796875 -5.203125 L 0.671875 -4.640625 L 1.5625 -2.84375 C 1.71875 -2.539062 1.941406 -2.460938 2.234375 -2.609375 Z M 2.234375 -2.609375 "/></g></g></g><g fill="#ffffff" fill-opacity="1"><g transform="translate(498.719368, 300.697278)"><g><path d="M -2.34375 -4.625 L -0.65625 -5.46875 L 1.46875 -3.203125 C 1.570312 -3.085938 1.6875 -2.9375 1.8125 -2.75 L 1.828125 -2.765625 C 1.753906 -2.953125 1.707031 -3.132812 1.6875 -3.3125 L 1.15625 -6.375 L 2.765625 -7.1875 L 3.40625 -1.34375 C 3.5 -0.601562 3.441406 -0.0195312 3.234375 0.40625 C 3.023438 0.84375 2.644531 1.195312 2.09375 1.46875 C 1.875 1.582031 1.640625 1.671875 1.390625 1.734375 L 0.765625 0.484375 C 0.921875 0.441406 1.09375 0.375 1.28125 0.28125 C 1.414062 0.207031 1.519531 0.117188 1.59375 0.015625 C 1.675781 -0.0859375 1.734375 -0.207031 1.765625 -0.34375 C 1.796875 -0.488281 1.800781 -0.695312 1.78125 -0.96875 Z M -2.34375 -4.625 "/></g></g></g><g fill="#ffffff" fill-opacity="1"><g transform="translate(503.809301, 298.140474)"><g/></g></g><g fill="#ffffff" fill-opacity="1"><g transform="translate(505.980033, 297.05006)"><g/></g></g><g fill="#ffffff" fill-opacity="1"><g transform="translate(468.786655, 330.001465)"><g><path d="M 3.28125 -1.640625 L 1.65625 -0.828125 L -0.671875 -5.484375 L -2.125 -4.765625 L -2.796875 -6.078125 L 1.734375 -8.34375 L 2.40625 -7.03125 L 0.953125 -6.296875 Z M 3.28125 -1.640625 "/></g></g></g><g fill="#ffffff" fill-opacity="1"><g transform="translate(473.723847, 327.521387)"><g><path d="M 0.984375 -6.390625 C 1.117188 -6.453125 1.253906 -6.503906 1.390625 -6.546875 L 1.484375 -6.578125 L 2.109375 -5.015625 C 1.953125 -4.972656 1.757812 -4.894531 1.53125 -4.78125 C 1.1875 -4.601562 0.972656 -4.394531 0.890625 -4.15625 C 0.816406 -3.914062 0.859375 -3.648438 1.015625 -3.359375 L 2.15625 -1.078125 L 0.546875 -0.28125 L -1.78125 -4.90625 L -0.578125 -5.5 L 0.03125 -4.875 L 0.109375 -4.90625 C 0.117188 -5.238281 0.207031 -5.535156 0.375 -5.796875 C 0.539062 -6.066406 0.742188 -6.265625 0.984375 -6.390625 Z M 0.984375 -6.390625 "/></g></g></g><g fill="#ffffff" fill-opacity="1"><g transform="translate(477.645038, 325.551672)"><g><path d="M 2.15625 -1.078125 L 0.5625 -0.28125 L -1.765625 -4.90625 L -0.171875 -5.703125 Z M -2.390625 -6.046875 C -2.515625 -6.285156 -2.535156 -6.5 -2.453125 -6.6875 C -2.378906 -6.875 -2.191406 -7.039062 -1.890625 -7.1875 C -1.597656 -7.332031 -1.351562 -7.375 -1.15625 -7.3125 C -0.957031 -7.257812 -0.800781 -7.117188 -0.6875 -6.890625 C -0.445312 -6.421875 -0.609375 -6.046875 -1.171875 -5.765625 C -1.742188 -5.484375 -2.148438 -5.578125 -2.390625 -6.046875 Z M -2.390625 -6.046875 "/></g></g></g><g fill="#ffffff" fill-opacity="1"><g transform="translate(480.362534, 324.186604)"><g><path d="M 3.375 -1.59375 C 3.132812 -1.476562 2.898438 -1.410156 2.671875 -1.390625 C 2.453125 -1.378906 2.207031 -1.425781 1.9375 -1.53125 L 1.859375 -1.5 C 2.066406 -1.195312 2.191406 -1.003906 2.234375 -0.921875 L 3.171875 0.9375 L 1.5625 1.734375 L -1.78125 -4.90625 L -0.484375 -5.546875 L 0.046875 -5.078125 L 0.125 -5.109375 C 0.195312 -5.703125 0.492188 -6.132812 1.015625 -6.40625 C 1.523438 -6.65625 2.03125 -6.640625 2.53125 -6.359375 C 3.039062 -6.085938 3.476562 -5.578125 3.84375 -4.828125 C 4.21875 -4.085938 4.363281 -3.425781 4.28125 -2.84375 C 4.195312 -2.269531 3.894531 -1.851562 3.375 -1.59375 Z M 1.0625 -4.859375 C 0.820312 -4.742188 0.695312 -4.578125 0.6875 -4.359375 C 0.6875 -4.148438 0.765625 -3.875 0.921875 -3.53125 L 0.984375 -3.40625 C 1.179688 -3.007812 1.375 -2.75 1.5625 -2.625 C 1.757812 -2.5 1.972656 -2.492188 2.203125 -2.609375 C 2.398438 -2.710938 2.5 -2.875 2.5 -3.09375 C 2.507812 -3.320312 2.414062 -3.640625 2.21875 -4.046875 C 2.019531 -4.441406 1.828125 -4.703125 1.640625 -4.828125 C 1.460938 -4.953125 1.269531 -4.960938 1.0625 -4.859375 Z M 1.0625 -4.859375 "/></g></g></g><g fill="#ffffff" fill-opacity="1"><g transform="translate(485.73632, 321.487213)"><g><path d="M 3.40625 -3.484375 C 3.65625 -2.992188 3.675781 -2.535156 3.46875 -2.109375 C 3.257812 -1.691406 2.84375 -1.328125 2.21875 -1.015625 C 1.863281 -0.835938 1.550781 -0.703125 1.28125 -0.609375 C 1.007812 -0.523438 0.710938 -0.46875 0.390625 -0.4375 L -0.25 -1.703125 C 0.0625 -1.710938 0.378906 -1.753906 0.703125 -1.828125 C 1.035156 -1.910156 1.316406 -2.007812 1.546875 -2.125 C 1.890625 -2.300781 2.023438 -2.46875 1.953125 -2.625 C 1.910156 -2.707031 1.820312 -2.757812 1.6875 -2.78125 C 1.5625 -2.800781 1.226562 -2.785156 0.6875 -2.734375 C 0.15625 -2.691406 -0.242188 -2.738281 -0.515625 -2.875 C -0.796875 -3.007812 -1.023438 -3.25 -1.203125 -3.59375 C -1.410156 -4.03125 -1.40625 -4.445312 -1.1875 -4.84375 C -0.976562 -5.25 -0.570312 -5.601562 0.03125 -5.90625 C 0.332031 -6.0625 0.632812 -6.175781 0.9375 -6.25 C 1.238281 -6.320312 1.566406 -6.363281 1.921875 -6.375 L 2.015625 -5.125 C 1.753906 -5.113281 1.484375 -5.078125 1.203125 -5.015625 C 0.929688 -4.960938 0.722656 -4.898438 0.578125 -4.828125 C 0.316406 -4.703125 0.222656 -4.578125 0.296875 -4.453125 C 0.328125 -4.378906 0.398438 -4.332031 0.515625 -4.3125 C 0.640625 -4.300781 0.960938 -4.316406 1.484375 -4.359375 C 1.867188 -4.390625 2.171875 -4.378906 2.390625 -4.328125 C 2.609375 -4.285156 2.800781 -4.191406 2.96875 -4.046875 C 3.144531 -3.910156 3.289062 -3.722656 3.40625 -3.484375 Z M 3.40625 -3.484375 "/></g></g></g></svg>